<?xml version="1.0" encoding="UTF-8" standalone="no"?>
<svg
   xmlns:dc="http://purl.org/dc/elements/1.1/"
   xmlns:cc="http://creativecommons.org/ns#"
   xmlns:rdf="http://www.w3.org/1999/02/22-rdf-syntax-ns#"
   xmlns:svg="http://www.w3.org/2000/svg"
   xmlns="http://www.w3.org/2000/svg"
   xmlns:sodipodi="http://sodipodi.sourceforge.net/DTD/sodipodi-0.dtd"
   xmlns:inkscape="http://www.inkscape.org/namespaces/inkscape"
   version="1.1"
   id="Layer_1"
   x="0px"
   y="0px"
   width="150"
   height="119"
   viewBox="0 0 150 119"
   enable-background="new 0 0 90 90"
   xml:space="preserve"
   inkscape:version="0.48.4 r9939"
   sodipodi:docname="logo.svg"><metadata
     id="metadata33"><rdf:RDF><cc:Work
         rdf:about=""><dc:format>image/svg+xml</dc:format><dc:type
           rdf:resource="http://purl.org/dc/dcmitype/StillImage" /><dc:title></dc:title></cc:Work></rdf:RDF></metadata><defs
     id="defs31" /><sodipodi:namedview
     pagecolor="#ffffff"
     bordercolor="#666666"
     borderopacity="1"
     objecttolerance="10"
     gridtolerance="10"
     guidetolerance="10"
     inkscape:pageopacity="0"
     inkscape:pageshadow="2"
     inkscape:window-width="1280"
     inkscape:window-height="1003"
     id="namedview29"
     showgrid="false"
     inkscape:zoom="2"
     inkscape:cx="44.707528"
     inkscape:cy="-1.6053843"
     inkscape:window-x="1920"
     inkscape:window-y="56"
     inkscape:window-maximized="1"
     inkscape:current-layer="Layer_1" /><g
     id="g3"
     transform="translate(0,29)"><path
       d="m -998.675,768.699 h -21.948 l 0,-8.439 c 0,0 -2.694,0 -2.693,0 v 8.439 12.378 c 2.27,10e-4 4.155,1.643 4.552,3.8 h 2.655 c -0.08,-0.437 -0.127,-0.885 -0.127,-1.344 0,-4.132 3.36,-7.492 7.491,-7.492 4.13,0 7.491,3.36 7.491,7.492 0,0.459 -0.048,0.907 -0.127,1.344 h 2.706 v -16.178 z"
       id="path5"
       inkscape:connector-curvature="0"
       style="fill:#000000" /><path
       d="m -1008.745,778.056 c -3.02,0 -5.477,2.458 -5.477,5.477 0,0.465 0.064,0.913 0.174,1.344 0.602,2.371 2.747,4.133 5.303,4.133 2.556,0 4.701,-1.762 5.302,-4.133 0.109,-0.431 0.174,-0.879 0.174,-1.344 0,-3.019 -2.456,-5.477 -5.476,-5.477 z m 0,7.869 c -0.821,0 -1.546,-0.416 -1.977,-1.048 -0.262,-0.384 -0.415,-0.846 -0.415,-1.344 0,-1.319 1.073,-2.393 2.393,-2.393 1.319,0 2.392,1.073 2.392,2.393 0,0.498 -0.154,0.96 -0.416,1.344 -0.432,0.632 -1.156,1.048 -1.977,1.048 z"
       id="path7"
       inkscape:connector-curvature="0"
       style="fill:#000000" /><path
       d="m -1020.144,784.877 c -0.374,-1.408 -1.648,-2.455 -3.172,-2.456 0,0 -10e-4,0 -10e-4,0 -1.817,0 -3.294,1.479 -3.294,3.295 0,1.817 1.478,3.294 3.294,3.294 1.816,0 3.295,-1.477 3.295,-3.294 -10e-4,-0.292 -0.051,-0.57 -0.122,-0.839 z m -2.14,0.839 c 0,0.569 -0.463,1.032 -1.034,1.032 -0.569,0 -1.033,-0.463 -1.033,-1.032 0,-0.569 0.464,-1.033 1.033,-1.033 0,0 10e-4,0 10e-4,0 0.215,10e-4 0.403,0.082 0.568,0.194 0.274,0.186 0.465,0.484 0.465,0.839 z"
       id="path9"
       inkscape:connector-curvature="0"
       style="fill:#000000" /><g
       id="g11"><polygon
         points="-999.069,770.993 -999.069,770.993 -1000.968,769.093 -997.427,765.551 -995.527,767.451 "
         id="polygon13"
         style="fill:#000000" /></g></g><polygon
     points="-1026.132,758.118 -1017.8,758.118 -1015.974,754.697 -1014.146,758.118 -1006.168,758.118 -1005.344,754.697 -1021.967,747.69 -1038.589,754.697 -1037.764,758.118 -1029.784,758.118 -1027.957,754.697 "
     id="polygon15"
     style="fill:#000000"
     transform="translate(0,29)" /><path
     inkscape:connector-curvature="0"
     d="m 95.581138,60.440059 -66.221938,0 c -2.388168,0.0067 -4.334717,1.94822 -4.334717,4.334717 l 0,11.280708 c 0,2.391511 1.941535,4.334717 4.334717,4.334717 l 91.55131,0 c 2.39318,0 4.33471,-1.944878 4.33471,-4.334717 l 0,-11.280708 c 0,-2.386497 -1.94655,-4.328032 -4.33471,-4.334717 l -7.20712,0 0,9.452816 a 2.9099594,2.9099594 0 0 1 0,0.05222 2.9099594,2.9099594 0 0 1 0,0.261128 2.9099594,2.9099594 0 0 1 -0.0522,0.313353 2.9099594,2.9099594 0 0 1 -0.10445,0.261128 2.9099594,2.9099594 0 0 1 -0.0522,0.261127 2.9099594,2.9099594 0 0 1 -0.15668,0.261128 2.9099594,2.9099594 0 0 1 -0.15668,0.261127 2.9099594,2.9099594 0 0 1 -0.15667,0.261128 2.9099594,2.9099594 0 0 1 -0.20891,0.208902 2.9099594,2.9099594 0 0 1 -0.2089,0.156676 2.9099594,2.9099594 0 0 1 -0.26113,0.208902 2.9099594,2.9099594 0 0 1 -0.26112,0.104451 2.9099594,2.9099594 0 0 1 -0.26113,0.156677 2.9099594,2.9099594 0 0 1 -0.26113,0.05223 2.9099594,2.9099594 0 0 1 -0.26113,0.104451 2.9099594,2.9099594 0 0 1 -0.31335,0 2.9099594,2.9099594 0 0 1 -0.31335,0 2.9099594,2.9099594 0 0 1 -0.26113,0 2.9099594,2.9099594 0 0 1 -0.31335,-0.05223 2.9099594,2.9099594 0 0 1 -0.26113,-0.104451 2.9099594,2.9099594 0 0 1 -0.26113,-0.104451 2.9099594,2.9099594 0 0 1 -0.26112,-0.104451 2.9099594,2.9099594 0 0 1 -0.26113,-0.156677 2.9099594,2.9099594 0 0 1 -0.2089,-0.208902 L 95.581138,60.440059 z"
     id="path3822"
     style="fill:#606060;fill-opacity:1" /><path
     d="m 29.306974,16.883989 c -2.393181,0 -4.334716,1.943207 -4.334716,4.334717 l 0,29.768537 c 0,2.386496 1.946549,4.331374 4.334716,4.334717 l 64.864075,0 16.607711,14.570915 0,-14.570915 10.13175,0 c 2.38816,-0.005 4.33471,-1.948221 4.33471,-4.334717 l 0,-29.768537 c 0,-2.39151 -1.94153,-4.334717 -4.33471,-4.334717 z m 30.447469,15.615426 c 1.687928,0 3.081304,1.391705 3.081304,3.081304 0,1.686257 -1.391705,3.02908 -3.081304,3.02908 -1.686257,0 -3.02908,-1.342823 -3.02908,-3.02908 0,-1.69127 1.342823,-3.081304 3.02908,-3.081304 z m 15.354298,0 c 1.687928,0 3.081304,1.391705 3.081304,3.081304 0,1.686257 -1.393376,3.02908 -3.081304,3.02908 -1.687929,0 -3.02908,-1.342823 -3.02908,-3.02908 0,-1.69127 1.342823,-3.081304 3.02908,-3.081304 z m 15.354298,0 c 1.687928,0 3.029079,1.391705 3.029079,3.081304 0,1.686257 -1.342822,3.02908 -3.029079,3.02908 -1.687929,0 -3.081305,-1.342823 -3.081305,-3.02908 0,-1.69127 1.393376,-3.081304 3.081305,-3.081304 z"
     id="path19"
     style="fill:#eaa502;fill-opacity:1"
     inkscape:connector-curvature="0"
     sodipodi:nodetypes="ssscccccsssssssssssssssssss" /><path
     inkscape:connector-curvature="0"
     d="M 19.958609,55.255111 V 43.623447 c 0,-3.671662 -2.976436,-6.646427 -6.644755,-6.646427 H 6.7877552 C 3.1177647,36.97702 0.143,39.951785 0.143,43.623447 v 30.090246 c 0,3.66999 2.9764359,6.646426 6.6447552,6.646426 h 6.5244278 c 3.66999,0 6.644755,-2.974764 6.644755,-6.646426 V 66.236672 55.255111 z"
     id="path21"
     style="fill:#606060;fill-opacity:1" /><path
     inkscape:connector-curvature="0"
     d="m 143.49657,36.97702 h -6.55283 c -3.66832,0 -6.64476,2.974765 -6.64476,6.646427 v 10.16935 10.981561 8.969417 c 0,3.671661 2.97644,6.646426 6.64476,6.646426 h 6.55283 c 3.67,0 6.64643,-2.974765 6.64643,-6.646426 V 43.623447 c -0.002,-3.671662 -2.97811,-6.646427 -6.64643,-6.646427 z"
     id="path23"
     style="fill:#606060;fill-opacity:1" /><polygon
     points="11,74 12.914,74 17.061,64 11,64 "
     id="polygon25"
     transform="matrix(1.6712161,0,0,1.6712161,-0.0959839,-21.553981)"
     style="fill:#606060;fill-opacity:1" /><polygon
     points="77.126,74 79,74 79,64 72.98,64 "
     id="polygon27"
     transform="matrix(1.6712161,0,0,1.6712161,-0.0959839,-21.553981)"
     style="fill:#606060;fill-opacity:1" /></svg>