<?xml version="1.0" encoding="UTF-8" standalone="no"?>
<!-- Created with Inkscape (http://www.inkscape.org/) -->

<svg
   xmlns:dc="http://purl.org/dc/elements/1.1/"
   xmlns:cc="http://creativecommons.org/ns#"
   xmlns:rdf="http://www.w3.org/1999/02/22-rdf-syntax-ns#"
   xmlns:svg="http://www.w3.org/2000/svg"
   xmlns="http://www.w3.org/2000/svg"
   xmlns:sodipodi="http://sodipodi.sourceforge.net/DTD/sodipodi-0.dtd"
   xmlns:inkscape="http://www.inkscape.org/namespaces/inkscape"
   width="18"
   height="50"
   id="svg3536"
   version="1.1"
   inkscape:version="0.48.4 r9939"
   sodipodi:docname="ico-permalink.svg">
  <defs
     id="defs3538" />
  <sodipodi:namedview
     id="base"
     pagecolor="#ffffff"
     bordercolor="#666666"
     borderopacity="1.0"
     inkscape:pageopacity="0.0"
     inkscape:pageshadow="2"
     inkscape:zoom="7.9195959"
     inkscape:cx="34.966289"
     inkscape:cy="43.445579"
     inkscape:document-units="px"
     inkscape:current-layer="layer1"
     showgrid="false"
     fit-margin-top="0"
     fit-margin-left="0"
     fit-margin-right="0"
     fit-margin-bottom="0"
     inkscape:window-width="1920"
     inkscape:window-height="1011"
     inkscape:window-x="0"
     inkscape:window-y="24"
     inkscape:window-maximized="1" />
  <metadata
     id="metadata3541">
    <rdf:RDF>
      <cc:Work
         rdf:about="">
        <dc:format>image/svg+xml</dc:format>
        <dc:type
           rdf:resource="http://purl.org/dc/dcmitype/StillImage" />
        <dc:title></dc:title>
      </cc:Work>
    </rdf:RDF>
  </metadata>
  <g
     inkscape:label="Calque 1"
     inkscape:groupmode="layer"
     id="layer1"
     transform="translate(-522.8573,-522.36211)">
    <path
       inkscape:connector-curvature="0"
       d="m 537.98276,555.62349 -3.50047,3.50047 c -0.12712,0.12657 -0.34988,0.12713 -0.477,0 l -0.55744,-0.558 1.19363,-1.19251 c 0.21938,-0.21938 0.21938,-0.57545 0,-0.79539 -0.21994,-0.21937 -0.576,-0.21937 -0.79538,0 l -1.19363,1.19308 -0.55688,-0.55688 c -0.0636,-0.0636 -0.099,-0.1485 -0.099,-0.23907 0,-0.0894 0.0355,-0.17381 0.099,-0.23794 l 3.50046,-3.4999 c 0.0636,-0.0641 0.1485,-0.0996 0.23907,-0.0996 0.09,0 0.17437,0.0354 0.23793,0.099 l 0.55745,0.55745 -1.33258,1.33257 c -0.21994,0.21994 -0.21994,0.57657 0,0.79538 0.10969,0.11025 0.25369,0.16482 0.39769,0.16482 0.14344,0 0.28744,-0.0546 0.39769,-0.16482 l 1.33314,-1.33313 0.55632,0.55631 c 0.13106,0.13219 0.13106,0.34651 0,0.47813 m -6.36362,6.36363 -3.50046,3.50047 c -0.12769,0.12768 -0.34988,0.12712 -0.47757,0 l -0.55688,-0.55688 1.33258,-1.33258 c 0.21994,-0.2205 0.21994,-0.57657 0,-0.79594 -0.21938,-0.21938 -0.57544,-0.21938 -0.79538,0 l -1.33258,1.33313 -0.55688,-0.55631 c -0.13162,-0.13219 -0.13162,-0.34651 0,-0.47757 l 3.49991,-3.50103 c 0.0641,-0.063 0.1485,-0.0984 0.2385,-0.0984 0.09,0 0.1755,0.0355 0.23906,0.099 l 0.55688,0.55744 -1.19307,1.19307 c -0.21938,0.21938 -0.21938,0.57488 0,0.79482 0.10969,0.11026 0.25369,0.16482 0.39769,0.16482 0.144,0 0.288,-0.0546 0.39769,-0.16482 l 1.19307,-1.19307 0.55744,0.55688 c 0.13107,0.13106 0.13107,0.34538 0,0.47701 m 9.0732,-11.46049 c -0.21938,-0.21937 -0.57544,-0.21937 -0.79538,0 l -2.47108,2.47165 -0.55688,-0.55688 c -0.55294,-0.55294 -1.51595,-0.55294 -2.06833,0 l -3.50047,3.49991 c -0.27618,0.27675 -0.42806,0.6435 -0.42862,1.03388 0,0.39151 0.15244,0.75826 0.42862,1.03445 l 0.55688,0.55688 -0.79538,0.79538 -0.55688,-0.55631 c -0.55238,-0.55295 -1.51651,-0.55238 -2.06833,-4.5e-4 l -3.4999,3.50047 c -0.57038,0.57094 -0.57038,1.49851 0,2.06833 l 0.55688,0.55688 -2.47164,2.47108 c -0.21938,0.21994 -0.21938,0.57601 0,0.79595 0.11025,0.10969 0.25369,0.16425 0.39769,0.16425 0.144,0 0.288,-0.0546 0.39769,-0.16425 l 2.47164,-2.47165 0.55688,0.55744 c 0.27619,0.27563 0.64407,0.42751 1.03445,0.42751 0.38981,0 0.75769,-0.15188 1.03388,-0.42807 l 3.50047,-3.50047 c 0.56981,-0.57038 0.56981,-1.49795 0,-2.06777 l -0.55745,-0.55688 0.79539,-0.79594 0.55744,0.55744 c 0.27619,0.27619 0.6435,0.42806 1.03444,0.42806 0.39038,0 0.7577,-0.15187 1.03332,-0.42806 l 3.50047,-3.50103 c 0.57038,-0.57038 0.57038,-1.49796 0,-2.06834 l -0.55688,-0.55631 2.47108,-2.47109 c 0.21994,-0.21994 0.21994,-0.57601 0,-0.79594"
       style="fill:#ffffff;fill-opacity:1;fill-rule:nonzero;stroke:none"
       id="path3075" />
    <path
       id="path4319"
       style="fill:#eaa502;fill-opacity:1;fill-rule:nonzero;stroke:none"
       d="m 537.98276,531.62349 -3.50047,3.50047 c -0.12712,0.12657 -0.34988,0.12713 -0.477,0 l -0.55744,-0.558 1.19363,-1.19251 c 0.21938,-0.21938 0.21938,-0.57545 0,-0.79539 -0.21994,-0.21937 -0.576,-0.21937 -0.79538,0 l -1.19363,1.19308 -0.55688,-0.55688 c -0.0636,-0.0636 -0.099,-0.1485 -0.099,-0.23907 0,-0.0894 0.0355,-0.17381 0.099,-0.23794 l 3.50046,-3.4999 c 0.0636,-0.0641 0.1485,-0.0996 0.23907,-0.0996 0.09,0 0.17437,0.0354 0.23793,0.099 l 0.55745,0.55745 -1.33258,1.33257 c -0.21994,0.21994 -0.21994,0.57657 0,0.79538 0.10969,0.11025 0.25369,0.16482 0.39769,0.16482 0.14344,0 0.28744,-0.0546 0.39769,-0.16482 l 1.33314,-1.33313 0.55632,0.55631 c 0.13106,0.13219 0.13106,0.34651 0,0.47813 m -6.36362,6.36363 -3.50046,3.50047 c -0.12769,0.12768 -0.34988,0.12712 -0.47757,0 l -0.55688,-0.55688 1.33258,-1.33258 c 0.21994,-0.2205 0.21994,-0.57657 0,-0.79594 -0.21938,-0.21938 -0.57544,-0.21938 -0.79538,0 l -1.33258,1.33313 -0.55688,-0.55631 c -0.13162,-0.13219 -0.13162,-0.34651 0,-0.47757 l 3.49991,-3.50103 c 0.0641,-0.063 0.1485,-0.0984 0.2385,-0.0984 0.09,0 0.1755,0.0355 0.23906,0.099 l 0.55688,0.55744 -1.19307,1.19307 c -0.21938,0.21938 -0.21938,0.57488 0,0.79482 0.10969,0.11026 0.25369,0.16482 0.39769,0.16482 0.144,0 0.288,-0.0546 0.39769,-0.16482 l 1.19307,-1.19307 0.55744,0.55688 c 0.13107,0.13106 0.13107,0.34538 0,0.47701 m 9.0732,-11.46049 c -0.21938,-0.21937 -0.57544,-0.21937 -0.79538,0 l -2.47108,2.47165 -0.55688,-0.55688 c -0.55294,-0.55294 -1.51595,-0.55294 -2.06833,0 l -3.50047,3.49991 c -0.27618,0.27675 -0.42806,0.6435 -0.42862,1.03388 0,0.39151 0.15244,0.75826 0.42862,1.03445 l 0.55688,0.55688 -0.79538,0.79538 -0.55688,-0.55631 c -0.55238,-0.55295 -1.51651,-0.55238 -2.06833,-4.5e-4 l -3.4999,3.50047 c -0.57038,0.57094 -0.57038,1.49851 0,2.06833 l 0.55688,0.55688 -2.47164,2.47108 c -0.21938,0.21994 -0.21938,0.57601 0,0.79595 0.11025,0.10969 0.25369,0.16425 0.39769,0.16425 0.144,0 0.288,-0.0546 0.39769,-0.16425 l 2.47164,-2.47165 0.55688,0.55744 c 0.27619,0.27563 0.64407,0.42751 1.03445,0.42751 0.38981,0 0.75769,-0.15188 1.03388,-0.42807 l 3.50047,-3.50047 c 0.56981,-0.57038 0.56981,-1.49795 0,-2.06777 l -0.55745,-0.55688 0.79539,-0.79594 0.55744,0.55744 c 0.27619,0.27619 0.6435,0.42806 1.03444,0.42806 0.39038,0 0.7577,-0.15187 1.03332,-0.42806 l 3.50047,-3.50103 c 0.57038,-0.57038 0.57038,-1.49796 0,-2.06834 l -0.55688,-0.55631 2.47108,-2.47109 c 0.21994,-0.21994 0.21994,-0.57601 0,-0.79594"
       inkscape:connector-curvature="0" />
  </g>
</svg>
