<?xml version="1.0" encoding="UTF-8" standalone="no"?>
<!-- Created with Inkscape (http://www.inkscape.org/) -->

<svg
   xmlns:dc="http://purl.org/dc/elements/1.1/"
   xmlns:cc="http://creativecommons.org/ns#"
   xmlns:rdf="http://www.w3.org/1999/02/22-rdf-syntax-ns#"
   xmlns:svg="http://www.w3.org/2000/svg"
   xmlns="http://www.w3.org/2000/svg"
   xmlns:sodipodi="http://sodipodi.sourceforge.net/DTD/sodipodi-0.dtd"
   xmlns:inkscape="http://www.inkscape.org/namespaces/inkscape"
   width="18"
   height="50"
   id="svg3542"
   version="1.1"
   inkscape:version="0.48.4 r9939"
   sodipodi:docname="ico-comments.svg">
  <defs
     id="defs3544" />
  <sodipodi:namedview
     id="base"
     pagecolor="#ffffff"
     bordercolor="#666666"
     borderopacity="1.0"
     inkscape:pageopacity="0.0"
     inkscape:pageshadow="2"
     inkscape:zoom="15.839192"
     inkscape:cx="13.010688"
     inkscape:cy="25.806812"
     inkscape:document-units="px"
     inkscape:current-layer="layer1"
     showgrid="false"
     fit-margin-top="0"
     fit-margin-left="0"
     fit-margin-right="0"
     fit-margin-bottom="0"
     inkscape:window-width="1201"
     inkscape:window-height="702"
     inkscape:window-x="680"
     inkscape:window-y="240"
     inkscape:window-maximized="0" />
  <metadata
     id="metadata3547">
    <rdf:RDF>
      <cc:Work
         rdf:about="">
        <dc:format>image/svg+xml</dc:format>
        <dc:type
           rdf:resource="http://purl.org/dc/dcmitype/StillImage" />
        <dc:title />
      </cc:Work>
    </rdf:RDF>
  </metadata>
  <g
     inkscape:label="Calque 1"
     inkscape:groupmode="layer"
     id="layer1"
     transform="translate(-371.42857,-513.79075)">
    <path
       inkscape:connector-curvature="0"
       d="m 381.83482,548.54075 c 0.46575,0 0.84375,-0.378 0.84375,-0.84375 0,-0.46575 -0.378,-0.84375 -0.84375,-0.84375 -0.46575,0 -0.84375,0.378 -0.84375,0.84375 0,0.46575 0.378,0.84375 0.84375,0.84375 m -6.75,-1.6875 c -0.46575,0 -0.84375,0.378 -0.84375,0.84375 0,0.46575 0.378,0.84375 0.84375,0.84375 0.46575,0 0.84375,-0.378 0.84375,-0.84375 0,-0.46575 -0.378,-0.84375 -0.84375,-0.84375 m 3.375,1.6875 c 0.46575,0 0.84375,-0.378 0.84375,-0.84375 0,-0.46575 -0.378,-0.84375 -0.84375,-0.84375 -0.46575,0 -0.84375,0.378 -0.84375,0.84375 0,0.46575 0.378,0.84375 0.84375,0.84375 m 9.84375,9.5625 c 0,0.15075 -0.0579,0.288 -0.16481,0.396 -0.21825,0.21712 -0.57431,0.22162 -0.80325,-0.006 l -3.69675,-3.56962 c -0.47813,-0.47869 -1.11375,-0.74194 -1.78988,-0.74194 l -4.79531,0 c -0.27113,0 -0.49219,-0.18956 -0.49219,-0.42187 l 0,-0.59175 1.45238,-1.40344 c 0.26606,-0.2655 0.61931,-0.41175 0.9945,-0.41175 l 4.79531,0 c 0.89156,0 1.61719,-0.69356 1.61719,-1.54688 l 0,-2.93681 2.39062,0 c 0.27113,0 0.49219,0.189 0.49219,0.42188 l 0,10.81181 z m -14.78925,-3.55613 c -0.21431,0.21375 -0.57881,0.21375 -0.79481,-4.5e-4 -0.108,-0.10912 -0.16594,-0.24637 -0.16594,-0.39712 l 0,-10.81181 c 0,-0.23288 0.22106,-0.42188 0.49219,-0.42188 l 10.75781,0 c 0.27113,0 0.49219,0.189 0.49219,0.42188 l 0,6.46875 c 0,0.23287 -0.22106,0.42187 -0.49219,0.42187 l -4.79531,0 c -0.67613,0 -1.31175,0.26325 -1.78257,0.73519 l -3.71137,3.58369 z m 14.29706,-8.80256 -2.39062,0 0,-2.40694 c 0,-0.85331 -0.72563,-1.54687 -1.61719,-1.54687 l -10.75781,0 c -0.89157,0 -1.61719,0.69356 -1.61719,1.54687 l 0,10.81182 c 0,0.44831 0.1755,0.87131 0.49556,1.1925 0.32006,0.31894 0.74363,0.495 1.1925,0.495 0.45056,0 0.87413,-0.17606 1.18575,-0.48769 l 1.20431,-1.16325 c 0.19519,0.64519 0.81057,1.1205 1.54688,1.1205 l 4.79531,0 c 0.37519,0 0.72844,0.14681 1.00181,0.41906 l 3.69675,3.57019 c 0.31894,0.31894 0.7425,0.495 1.19307,0.495 0.44887,0 0.87243,-0.17606 1.19362,-0.49669 0.31894,-0.3195 0.49444,-0.7425 0.49444,-1.19081 l 0,-10.81181 c 0,-0.85275 -0.72563,-1.54688 -1.61719,-1.54688"
       style="fill:#ffffff;fill-opacity:1;fill-rule:nonzero;stroke:none"
       id="path3519" />
    <path
       id="path4456"
       style="fill:#eaa502;fill-opacity:1;fill-rule:nonzero;stroke:none"
       d="m 381.83482,524.54075 c 0.46575,0 0.84375,-0.378 0.84375,-0.84375 0,-0.46575 -0.378,-0.84375 -0.84375,-0.84375 -0.46575,0 -0.84375,0.378 -0.84375,0.84375 0,0.46575 0.378,0.84375 0.84375,0.84375 m -6.75,-1.6875 c -0.46575,0 -0.84375,0.378 -0.84375,0.84375 0,0.46575 0.378,0.84375 0.84375,0.84375 0.46575,0 0.84375,-0.378 0.84375,-0.84375 0,-0.46575 -0.378,-0.84375 -0.84375,-0.84375 m 3.375,1.6875 c 0.46575,0 0.84375,-0.378 0.84375,-0.84375 0,-0.46575 -0.378,-0.84375 -0.84375,-0.84375 -0.46575,0 -0.84375,0.378 -0.84375,0.84375 0,0.46575 0.378,0.84375 0.84375,0.84375 m 9.84375,9.5625 c 0,0.15075 -0.0579,0.288 -0.16481,0.396 -0.21825,0.21712 -0.57431,0.22162 -0.80325,-0.006 l -3.69675,-3.56962 c -0.47813,-0.47869 -1.11375,-0.74194 -1.78988,-0.74194 l -4.79531,0 c -0.27113,0 -0.49219,-0.18956 -0.49219,-0.42187 l 0,-0.59175 1.45238,-1.40344 c 0.26606,-0.2655 0.61931,-0.41175 0.9945,-0.41175 l 4.79531,0 c 0.89156,0 1.61719,-0.69356 1.61719,-1.54688 l 0,-2.93681 2.39062,0 c 0.27113,0 0.49219,0.189 0.49219,0.42188 l 0,10.81181 z m -14.78925,-3.55613 c -0.21431,0.21375 -0.57881,0.21375 -0.79481,-4.5e-4 -0.108,-0.10912 -0.16594,-0.24637 -0.16594,-0.39712 l 0,-10.81181 c 0,-0.23288 0.22106,-0.42188 0.49219,-0.42188 l 10.75781,0 c 0.27113,0 0.49219,0.189 0.49219,0.42188 l 0,6.46875 c 0,0.23287 -0.22106,0.42187 -0.49219,0.42187 l -4.79531,0 c -0.67613,0 -1.31175,0.26325 -1.78257,0.73519 l -3.71137,3.58369 z m 14.29706,-8.80256 -2.39062,0 0,-2.40694 c 0,-0.85331 -0.72563,-1.54687 -1.61719,-1.54687 l -10.75781,0 c -0.89157,0 -1.61719,0.69356 -1.61719,1.54687 l 0,10.81182 c 0,0.44831 0.1755,0.87131 0.49556,1.1925 0.32006,0.31894 0.74363,0.495 1.1925,0.495 0.45056,0 0.87413,-0.17606 1.18575,-0.48769 l 1.20431,-1.16325 c 0.19519,0.64519 0.81057,1.1205 1.54688,1.1205 l 4.79531,0 c 0.37519,0 0.72844,0.14681 1.00181,0.41906 l 3.69675,3.57019 c 0.31894,0.31894 0.7425,0.495 1.19307,0.495 0.44887,0 0.87243,-0.17606 1.19362,-0.49669 0.31894,-0.3195 0.49444,-0.7425 0.49444,-1.19081 l 0,-10.81181 c 0,-0.85275 -0.72563,-1.54688 -1.61719,-1.54688"
       inkscape:connector-curvature="0" />
  </g>
</svg>
