<?xml version="1.0" encoding="UTF-8" standalone="no"?>
<!-- Created with Inkscape (http://www.inkscape.org/) -->

<svg
   xmlns:dc="http://purl.org/dc/elements/1.1/"
   xmlns:cc="http://creativecommons.org/ns#"
   xmlns:rdf="http://www.w3.org/1999/02/22-rdf-syntax-ns#"
   xmlns:svg="http://www.w3.org/2000/svg"
   xmlns="http://www.w3.org/2000/svg"
   xmlns:sodipodi="http://sodipodi.sourceforge.net/DTD/sodipodi-0.dtd"
   xmlns:inkscape="http://www.inkscape.org/namespaces/inkscape"
   width="36"
   height="36"
   id="svg3531"
   version="1.1"
   inkscape:version="0.48.4 r9939"
   sodipodi:docname="ico-settings.svg">
  <defs
     id="defs3533" />
  <sodipodi:namedview
     id="base"
     pagecolor="#ffffff"
     bordercolor="#666666"
     borderopacity="1.0"
     inkscape:pageopacity="0.0"
     inkscape:pageshadow="2"
     inkscape:zoom="7.9195959"
     inkscape:cx="21.909054"
     inkscape:cy="-4.8645579"
     inkscape:document-units="px"
     inkscape:current-layer="layer1"
     showgrid="false"
     fit-margin-top="0"
     fit-margin-left="0"
     fit-margin-right="0"
     fit-margin-bottom="0"
     inkscape:window-width="1280"
     inkscape:window-height="1003"
     inkscape:window-x="1920"
     inkscape:window-y="56"
     inkscape:window-maximized="1" />
  <metadata
     id="metadata3536">
    <rdf:RDF>
      <cc:Work
         rdf:about="">
        <dc:format>image/svg+xml</dc:format>
        <dc:type
           rdf:resource="http://purl.org/dc/dcmitype/StillImage" />
        <dc:title></dc:title>
      </cc:Work>
    </rdf:RDF>
  </metadata>
  <g
     inkscape:label="Calque 1"
     inkscape:groupmode="layer"
     id="layer1"
     transform="translate(-309.7282,-355.20517)">
    <path
       inkscape:connector-curvature="0"
       d="m 327.72789,374.66792 c -0.80759,0 -1.46275,-0.65516 -1.46275,-1.46277 0,-0.8076 0.65516,-1.46275 1.46275,-1.46275 0.80759,0 1.46275,0.65515 1.46275,1.46275 0,0.80761 -0.65516,1.46277 -1.46275,1.46277 m 0,-5.17009 c -2.0436,0 -3.7065,1.66369 -3.7065,3.70732 0,2.04365 1.6629,3.70654 3.7065,3.70654 2.0436,0 3.70726,-1.66289 3.70726,-3.70654 0,-2.04363 -1.66366,-3.70732 -3.70726,-3.70732 m 0,8.92742 c -2.87856,0 -5.22003,-2.34149 -5.22003,-5.2201 0,-2.87862 2.34147,-5.22089 5.22003,-5.22089 2.87855,0 5.22003,2.34227 5.22003,5.22089 0,2.87861 -2.34148,5.2201 -5.22003,5.2201 m 0,-12.00459 c -3.7401,0 -6.78363,3.04356 -6.78363,6.78449 0,3.74015 3.04353,6.78372 6.78363,6.78372 3.74011,0 6.78363,-3.04357 6.78363,-6.78372 0,-3.74093 -3.04352,-6.78449 -6.78363,-6.78449 m 10.10077,11.87717 c -1.40877,-0.62779 -3.14046,-0.32054 -4.2334,0.77478 -1.12736,1.12656 -1.40332,2.8231 -0.77555,4.23348 -0.49956,0.25172 -1.01711,0.46672 -1.54951,0.64107 -0.55273,-1.44087 -1.94746,-2.44548 -3.54231,-2.44548 -1.59485,0 -2.98958,1.00461 -3.54153,2.44548 -0.5324,-0.17435 -1.05073,-0.38935 -1.5503,-0.64107 0.62935,-1.4096 0.35258,-3.10692 -0.77477,-4.23427 -0.71454,-0.71458 -1.66441,-1.10783 -2.67528,-1.10783 -0.53709,0 -1.07028,0.1157 -1.5589,0.33384 -0.25252,-0.50035 -0.46752,-1.0187 -0.64185,-1.5511 1.44162,-0.55195 2.44624,-1.94748 2.44624,-3.54158 0,-1.59488 -1.00462,-2.98963 -2.44624,-3.54237 0.17433,-0.53161 0.38933,-1.04995 0.64185,-1.55031 0.48862,0.2189 1.02257,0.33462 1.55967,0.33462 1.01086,0 1.96075,-0.39403 2.67531,-1.1086 1.12812,-1.12737 1.40409,-2.82467 0.77397,-4.23504 0.49957,-0.25174 1.01711,-0.46597 1.5503,-0.64108 0.55195,1.44087 1.94668,2.44549 3.54153,2.44549 1.59485,0 2.98958,-1.00462 3.54231,-2.44549 0.5324,0.17511 1.04995,0.38934 1.54951,0.64108 -0.62935,1.41037 -0.35257,3.10767 0.77555,4.23504 0.71454,0.71457 1.66444,1.10782 2.67452,1.10782 0.53708,0 1.07027,-0.1157 1.55888,-0.33384 0.25253,0.50036 0.46753,1.01792 0.64186,1.55031 -1.44162,0.55274 -2.44624,1.94749 -2.44624,3.54237 0,1.5941 1.00462,2.98963 2.44624,3.54158 -0.17433,0.5324 -0.38933,1.05075 -0.64186,1.5511 m 1.71761,-2.88095 c -1.11641,-0.14463 -1.95838,-1.09452 -1.95838,-2.21173 0,-1.1172 0.84197,-2.06866 1.95838,-2.21172 0.22202,-0.0289 0.42061,-0.15166 0.54647,-0.33619 0.12667,-0.18528 0.16653,-0.41513 0.11097,-0.63168 -0.30333,-1.1946 -0.77553,-2.33605 -1.40566,-3.39383 -0.11417,-0.19231 -0.30489,-0.32678 -0.52536,-0.36901 -0.22125,-0.0415 -0.44719,0.0125 -0.62466,0.14934 -0.86154,0.6661 -2.17729,0.59104 -2.94736,-0.17983 -0.79118,-0.78961 -0.86779,-2.05692 -0.1806,-2.94818 0.13681,-0.17591 0.19232,-0.40341 0.15011,-0.6231 -0.0422,-0.22048 -0.17591,-0.41201 -0.36823,-0.52616 -1.05542,-0.62857 -2.19684,-1.10077 -3.39377,-1.40568 -0.21813,-0.0547 -0.44717,-0.0148 -0.63169,0.11098 -0.18607,0.12583 -0.30802,0.32522 -0.33695,0.54648 -0.14306,1.11563 -1.09451,1.95764 -2.21169,1.95764 -1.11796,0 -2.06864,-0.84201 -2.21091,-1.95686 -0.0289,-0.22204 -0.1509,-0.4214 -0.33619,-0.54726 -0.18527,-0.12584 -0.41434,-0.16497 -0.63167,-0.11098 -1.1977,0.30491 -2.33992,0.77711 -3.39533,1.40568 -0.19232,0.11417 -0.32602,0.30568 -0.36822,0.52616 -0.0422,0.21969 0.0139,0.44719 0.1501,0.6231 0.68718,0.89126 0.61135,2.15857 -0.17904,2.94897 -0.77007,0.76929 -2.08583,0.84591 -2.94893,0.17904 -0.17747,-0.13611 -0.40419,-0.18921 -0.62465,-0.14934 -0.22048,0.0422 -0.41123,0.1767 -0.52536,0.36901 -0.63091,1.05935 -1.10312,2.20158 -1.40566,3.3946 -0.0547,0.21655 -0.014,0.44641 0.11179,0.63091 0.12584,0.18453 0.32523,0.30725 0.54648,0.33619 1.1164,0.14306 1.95761,1.09452 1.95761,2.21172 0,1.11721 -0.84121,2.0671 -1.95761,2.21173 -0.22125,0.0281 -0.42061,0.1501 -0.54648,0.3354 -0.12583,0.18529 -0.16652,0.41514 -0.11179,0.6317 0.30254,1.19381 0.77553,2.33602 1.40566,3.39459 0.11417,0.19233 0.30488,0.3268 0.52536,0.36902 0.2189,0.0398 0.44718,-0.0139 0.62387,-0.14934 0.86623,-0.66609 2.18041,-0.59026 2.94893,0.17904 0.79039,0.7904 0.867,2.05772 0.17982,2.9482 -0.13682,0.17746 -0.19155,0.40496 -0.14934,0.62465 0.0422,0.21891 0.17669,0.41123 0.36824,0.52537 1.0562,0.62859 2.19839,1.10079 3.39455,1.4057 0.0633,0.0157 0.12819,0.0235 0.19231,0.0235 0.1548,0 0.30803,-0.0453 0.43936,-0.13529 0.18529,-0.12583 0.30725,-0.32522 0.33619,-0.54647 0.14227,-1.11641 1.09295,-1.95766 2.21091,-1.95766 1.11718,0 2.06863,0.84125 2.21169,1.95766 0.0289,0.22203 0.15088,0.42139 0.33695,0.54647 0.18452,0.12667 0.41356,0.16654 0.63169,0.11181 1.19537,-0.3049 2.33678,-0.77712 3.39299,-1.40569 0.19154,-0.11418 0.32601,-0.30569 0.36822,-0.52537 0.0422,-0.21969 -0.0125,-0.44642 -0.14932,-0.62388 -0.68642,-0.89125 -0.60902,-2.15857 0.1806,-2.94819 0.77086,-0.77086 2.08504,-0.84513 2.94814,-0.17982 0.17669,0.13681 0.40419,0.19077 0.62388,0.14932 0.22047,-0.0422 0.41122,-0.17668 0.52536,-0.36901 0.63013,-1.05777 1.10233,-2.2 1.40566,-3.39461 0.0556,-0.21654 0.0157,-0.44639 -0.11097,-0.6309 -0.12583,-0.18607 -0.32445,-0.30803 -0.54647,-0.33617"
       style="fill:#424147;fill-opacity:1;fill-rule:nonzero;stroke:none"
       id="path3474" />
  </g>
</svg>
