<?xml version="1.0" encoding="UTF-8" standalone="no"?>
<!-- Created with Inkscape (http://www.inkscape.org/) -->

<svg
   xmlns:dc="http://purl.org/dc/elements/1.1/"
   xmlns:cc="http://creativecommons.org/ns#"
   xmlns:rdf="http://www.w3.org/1999/02/22-rdf-syntax-ns#"
   xmlns:svg="http://www.w3.org/2000/svg"
   xmlns="http://www.w3.org/2000/svg"
   xmlns:sodipodi="http://sodipodi.sourceforge.net/DTD/sodipodi-0.dtd"
   xmlns:inkscape="http://www.inkscape.org/namespaces/inkscape"
   width="18"
   height="68"
   id="svg3409"
   version="1.1"
   inkscape:version="0.48.4 r9939"
   sodipodi:docname="ico-addimage.svg">
  <defs
     id="defs3411" />
  <sodipodi:namedview
     id="base"
     pagecolor="#ffffff"
     bordercolor="#666666"
     borderopacity="1.0"
     inkscape:pageopacity="0.0"
     inkscape:pageshadow="2"
     inkscape:zoom="128"
     inkscape:cx="15.076822"
     inkscape:cy="7.7670747"
     inkscape:document-units="px"
     inkscape:current-layer="layer1"
     showgrid="false"
     fit-margin-top="0"
     fit-margin-left="0"
     fit-margin-right="0"
     fit-margin-bottom="0"
     inkscape:window-width="1280"
     inkscape:window-height="953"
     inkscape:window-x="0"
     inkscape:window-y="24"
     inkscape:window-maximized="1"
     showguides="true"
     inkscape:guide-bbox="true">
    <sodipodi:guide
       orientation="0,1"
       position="4.109375,8"
       id="guide4512" />
    <sodipodi:guide
       orientation="0,1"
       position="6.671875,60"
       id="guide4516" />
  </sodipodi:namedview>
  <metadata
     id="metadata3414">
    <rdf:RDF>
      <cc:Work
         rdf:about="">
        <dc:format>image/svg+xml</dc:format>
        <dc:type
           rdf:resource="http://purl.org/dc/dcmitype/StillImage" />
        <dc:title />
      </cc:Work>
    </rdf:RDF>
  </metadata>
  <g
     inkscape:label="Calque 1"
     inkscape:groupmode="layer"
     id="layer1"
     transform="translate(-253.04564,-584.00276)">
    <path
       inkscape:connector-curvature="0"
       d="m 267.663,635.92365 -1.46634,-1.46633 c -0.65826,-0.6569 -1.72812,-0.65758 -2.38639,4.5e-4 l -2.97389,2.97251 -0.33738,-0.33738 c -0.65826,-0.6562 -1.72881,-0.65689 -2.38639,0 l -1.69927,1.69996 0,-8.205 c 0,-0.30989 0.25149,-0.56206 0.56207,-0.56206 l 10.12552,0 c 0.30989,0 0.56207,0.25217 0.56207,0.56206 l 0,5.33555 z m 0,3.66514 c 0,0.30989 -0.25218,0.56207 -0.56207,0.56207 l -3.5449,0 -1.92464,-1.92465 2.97389,-2.97251 c 0.21988,-0.21988 0.5765,-0.21988 0.79569,0 l 2.26203,2.26134 0,2.07375 z m -10.68759,0.56207 c -0.0948,0 -0.18002,-0.0296 -0.25836,-0.0708 l 2.19125,-2.19124 c 0.2192,-0.21851 0.57581,-0.21851 0.7957,0 l 2.26133,2.26202 -4.98992,0 z m 11.25034,-11.24966 -12.37517,0 c -0.31126,0 -0.56275,0.25149 -0.56275,0.56207 l 0,11.25035 c 0,0.31126 0.25149,0.56275 0.56275,0.56275 l 12.37517,0 c 0.31127,0 0.56276,-0.25149 0.56276,-0.56275 l 0,-11.25035 c 0,-0.31058 -0.25149,-0.56207 -0.56276,-0.56207 z m -8.43793,5.62483 c -0.61978,0 -1.12482,-0.50435 -1.12482,-1.12483 0,-0.62116 0.50504,-1.12551 1.12482,-1.12551 0.62048,0 1.12552,0.50435 1.12552,1.12551 0,0.62048 -0.50504,1.12483 -1.12552,1.12483 z m 0,-3.37517 c -1.24095,0 -2.24965,1.01008 -2.24965,2.25034 0,1.24096 1.0087,2.24966 2.24965,2.24966 1.24096,0 2.25035,-1.0087 2.25035,-2.24966 0,-1.24026 -1.00939,-2.25034 -2.25035,-2.25034 z m 10.12552,11.88319 c 0,0.27072 -0.18896,0.49198 -0.4219,0.49198 l -14.90654,0 c -0.23294,0 -0.4219,-0.22126 -0.4219,-0.49198 l 0,-14.76569 c 0,-0.27141 0.18896,-0.49267 0.4219,-0.49267 l 14.90654,0 c 0.23294,0 0.4219,0.22126 0.4219,0.49267 l 0,14.76569 z m -0.4219,-16.38319 -14.90654,0 c -0.85342,0 -1.54673,0.72492 -1.54673,1.6175 l 0,14.76569 c 0,0.8912 0.69331,1.61681 1.54673,1.61681 l 14.90654,0 c 0.85342,0 1.54673,-0.72561 1.54673,-1.61681 l 0,-14.76569 c 0,-0.89258 -0.69331,-1.6175 -1.54673,-1.6175"
       style="fill:#383838;fill-opacity:1;fill-rule:nonzero;stroke:none"
       id="path3176" />
    <path
       inkscape:connector-curvature="0"
       d="m 267.6679,600.97188 -1.46634,-1.46633 c -0.65826,-0.6569 -1.72812,-0.65758 -2.38639,4.5e-4 l -2.97389,2.97251 -0.33738,-0.33738 c -0.65826,-0.6562 -1.72881,-0.65689 -2.38639,0 l -1.69927,1.69996 0,-8.205 c 0,-0.30989 0.25149,-0.56206 0.56207,-0.56206 l 10.12552,0 c 0.30989,0 0.56207,0.25217 0.56207,0.56206 l 0,5.33555 z m 0,3.66514 c 0,0.30989 -0.25218,0.56207 -0.56207,0.56207 l -3.5449,0 -1.92464,-1.92465 2.97389,-2.97251 c 0.21988,-0.21988 0.5765,-0.21988 0.79569,0 l 2.26203,2.26134 0,2.07375 z m -10.68759,0.56207 c -0.0948,0 -0.18002,-0.0296 -0.25836,-0.0708 l 2.19125,-2.19124 c 0.2192,-0.21851 0.57581,-0.21851 0.7957,0 l 2.26133,2.26202 -4.98992,0 z m 11.25034,-11.24966 -12.37517,0 c -0.31126,0 -0.56275,0.25149 -0.56275,0.56207 l 0,11.25035 c 0,0.31126 0.25149,0.56275 0.56275,0.56275 l 12.37517,0 c 0.31127,0 0.56276,-0.25149 0.56276,-0.56275 l 0,-11.25035 c 0,-0.31058 -0.25149,-0.56207 -0.56276,-0.56207 z m -8.43793,5.62483 c -0.61978,0 -1.12482,-0.50435 -1.12482,-1.12483 0,-0.62116 0.50504,-1.12551 1.12482,-1.12551 0.62048,0 1.12552,0.50435 1.12552,1.12551 0,0.62048 -0.50504,1.12483 -1.12552,1.12483 z m 0,-3.37517 c -1.24095,0 -2.24965,1.01008 -2.24965,2.25034 0,1.24096 1.0087,2.24966 2.24965,2.24966 1.24096,0 2.25035,-1.0087 2.25035,-2.24966 0,-1.24026 -1.00939,-2.25034 -2.25035,-2.25034 z m 10.12552,11.88319 c 0,0.27072 -0.18896,0.49198 -0.4219,0.49198 l -14.90654,0 c -0.23294,0 -0.4219,-0.22126 -0.4219,-0.49198 l 0,-14.76569 c 0,-0.27141 0.18896,-0.49267 0.4219,-0.49267 l 14.90654,0 c 0.23294,0 0.4219,0.22126 0.4219,0.49267 l 0,14.76569 z m -0.4219,-16.38319 -14.90654,0 c -0.85342,0 -1.54673,0.72492 -1.54673,1.6175 l 0,14.76569 c 0,0.8912 0.69331,1.61681 1.54673,1.61681 l 14.90654,0 c 0.85342,0 1.54673,-0.72561 1.54673,-1.61681 l 0,-14.76569 c 0,-0.89258 -0.69331,-1.6175 -1.54673,-1.6175"
       style="fill:#606060;fill-opacity:1;fill-rule:nonzero;stroke:none"
       id="path3176-8" />
  </g>
</svg>
