<?xml version="1.0" encoding="UTF-8" standalone="no"?>
<!-- Created with Inkscape (http://www.inkscape.org/) -->

<svg
   xmlns:dc="http://purl.org/dc/elements/1.1/"
   xmlns:cc="http://creativecommons.org/ns#"
   xmlns:rdf="http://www.w3.org/1999/02/22-rdf-syntax-ns#"
   xmlns:svg="http://www.w3.org/2000/svg"
   xmlns="http://www.w3.org/2000/svg"
   xmlns:sodipodi="http://sodipodi.sourceforge.net/DTD/sodipodi-0.dtd"
   xmlns:inkscape="http://www.inkscape.org/namespaces/inkscape"
   width="18"
   height="68"
   id="svg3409"
   version="1.1"
   inkscape:version="0.48.4 r9939"
   sodipodi:docname="ico-addpost.svg">
  <defs
     id="defs3411" />
  <sodipodi:namedview
     id="base"
     pagecolor="#ffffff"
     bordercolor="#666666"
     borderopacity="1.0"
     inkscape:pageopacity="0.0"
     inkscape:pageshadow="2"
     inkscape:zoom="22.627417"
     inkscape:cx="10.297543"
     inkscape:cy="51.135342"
     inkscape:document-units="px"
     inkscape:current-layer="layer1"
     showgrid="false"
     fit-margin-top="0"
     fit-margin-left="0"
     fit-margin-right="0"
     fit-margin-bottom="0"
     inkscape:window-width="1920"
     inkscape:window-height="1011"
     inkscape:window-x="0"
     inkscape:window-y="24"
     inkscape:window-maximized="1"
     showguides="true"
     inkscape:guide-bbox="true">
    <sodipodi:guide
       orientation="0,1"
       position="18.50631,7.3472814"
       id="guide4512" />
    <sodipodi:guide
       orientation="0,1"
       position="18.222656,60.304688"
       id="guide4516" />
  </sodipodi:namedview>
  <metadata
     id="metadata3414">
    <rdf:RDF>
      <cc:Work
         rdf:about="">
        <dc:format>image/svg+xml</dc:format>
        <dc:type
           rdf:resource="http://purl.org/dc/dcmitype/StillImage" />
        <dc:title />
      </cc:Work>
    </rdf:RDF>
  </metadata>
  <g
     inkscape:label="Calque 1"
     inkscape:groupmode="layer"
     id="layer1"
     transform="translate(-253.04564,-584.00276)">
    <path
       inkscape:connector-curvature="0"
       d="m 268.3238,643.18474 -5.41995,-2.95535 6.78285,-10.71482 -1.3629,13.67017 z m -7.9643,-1.04468 0,-2.90722 6.13405,-6.77667 -6.13405,9.68389 z m -0.81237,-3.68386 -4.15397,0 11.32651,-7.93132 -7.17254,7.93132 z m 11.49214,-11.24405 -0.002,-0.0619 -0.005,-0.0549 -0.0117,-0.0344 -0.0213,-0.0619 -0.0117,-0.0343 -0.0316,-0.0481 -0.033,-0.0481 -0.0529,-0.0619 -0.0103,-0.0137 -0.0289,-0.0206 -0.0289,-0.0206 -0.0186,-0.0206 -0.007,0 -0.0103,-0.007 -0.0681,-0.0275 -0.0536,-0.0206 -0.0516,-0.0137 -0.0605,-0.007 -0.0749,-0.007 -0.0206,0 -0.0406,0.007 -0.0605,0.0137 -0.0673,0.0206 -0.0509,0.0275 -0.0453,0.0206 -0.0117,0.007 -9.9e-4,0 -16.87359,11.81449 c -0.20206,0.13746 -0.28798,0.39176 -0.21444,0.63231 0.0736,0.2268 0.29073,0.39176 0.53609,0.39176 l 5.62683,0 0,4.50173 0.0117,0.055 0.0227,0.11683 0.0426,0.0962 0.0591,0.0825 0.0832,0.0825 0.0419,0.0412 0.0543,0.0206 0.0536,0.0275 c 0.0632,0.0206 0.12715,0.0412 0.19314,0.0412 l 9.9e-4,0 c 0.0666,-0.007 0.13126,-0.0206 0.1945,-0.0412 l 0.0399,-0.0137 c 0.0563,-0.0275 0.10928,-0.0619 0.15533,-0.10996 l 0.0206,-0.0206 0.0645,-0.0825 2.033,-3.20964 0.0344,0.0275 6.18903,3.38145 c 0.16633,0.0825 0.36564,0.0894 0.53333,0 0.16701,-0.0894 0.27835,-0.25429 0.29691,-0.43985 l 1.6818,-16.87294 -0.002,-0.0549"
       style="fill:#ececef;fill-opacity:0.94117647;fill-rule:nonzero;stroke:none"
       id="path3178" />
    <path
       inkscape:connector-curvature="0"
       d="m 268.3274,606.23714 -5.41995,-2.95535 6.78285,-10.71482 -1.3629,13.67017 z m -7.9643,-1.04468 0,-2.90722 6.13405,-6.77667 -6.13405,9.68389 z m -0.81237,-3.68386 -4.15397,0 11.32651,-7.93132 -7.17254,7.93132 z m 11.49214,-11.24405 -0.002,-0.0619 -0.005,-0.0549 -0.0117,-0.0344 -0.0213,-0.0619 -0.0117,-0.0343 -0.0316,-0.0481 -0.033,-0.0481 -0.0529,-0.0619 -0.0103,-0.0137 -0.0289,-0.0206 -0.0289,-0.0206 -0.0186,-0.0206 -0.007,0 -0.0103,-0.007 -0.0681,-0.0275 -0.0536,-0.0206 -0.0516,-0.0137 -0.0605,-0.007 -0.0749,-0.007 -0.0206,0 -0.0406,0.007 -0.0605,0.0137 -0.0673,0.0206 -0.0509,0.0275 -0.0453,0.0206 -0.0117,0.007 -9.9e-4,0 -16.87359,11.81449 c -0.20206,0.13746 -0.28798,0.39176 -0.21444,0.63231 0.0736,0.2268 0.29073,0.39176 0.53609,0.39176 l 5.62683,0 0,4.50173 0.0117,0.055 0.0227,0.11683 0.0426,0.0962 0.0591,0.0825 0.0832,0.0825 0.0419,0.0412 0.0543,0.0206 0.0536,0.0275 c 0.0632,0.0206 0.12715,0.0412 0.19314,0.0412 l 9.9e-4,0 c 0.0666,-0.007 0.13126,-0.0206 0.1945,-0.0412 l 0.0399,-0.0137 c 0.0563,-0.0275 0.10928,-0.0619 0.15533,-0.10996 l 0.0206,-0.0206 0.0645,-0.0825 2.033,-3.20964 0.0344,0.0275 6.18903,3.38145 c 0.16633,0.0825 0.36564,0.0894 0.53333,0 0.16701,-0.0894 0.27835,-0.25429 0.29691,-0.43985 l 1.6818,-16.87294 -0.002,-0.0549"
       style="fill:#313131;fill-opacity:1;fill-rule:nonzero;stroke:none"
       id="path3178-8" />
  </g>
</svg>
