<?xml version="1.0" encoding="UTF-8" standalone="no"?>
<!-- Created with Inkscape (http://www.inkscape.org/) -->

<svg
   xmlns:dc="http://purl.org/dc/elements/1.1/"
   xmlns:cc="http://creativecommons.org/ns#"
   xmlns:rdf="http://www.w3.org/1999/02/22-rdf-syntax-ns#"
   xmlns:svg="http://www.w3.org/2000/svg"
   xmlns="http://www.w3.org/2000/svg"
   xmlns:sodipodi="http://sodipodi.sourceforge.net/DTD/sodipodi-0.dtd"
   xmlns:inkscape="http://www.inkscape.org/namespaces/inkscape"
   width="18"
   height="50"
   id="svg3542"
   version="1.1"
   inkscape:version="0.48.4 r9939"
   sodipodi:docname="ico-likes.svg">
  <defs
     id="defs3544" />
  <sodipodi:namedview
     id="base"
     pagecolor="#ffffff"
     bordercolor="#666666"
     borderopacity="1.0"
     inkscape:pageopacity="0.0"
     inkscape:pageshadow="2"
     inkscape:zoom="15.839192"
     inkscape:cx="30.706178"
     inkscape:cy="26.361429"
     inkscape:document-units="px"
     inkscape:current-layer="layer1"
     showgrid="false"
     fit-margin-top="0"
     fit-margin-left="0"
     fit-margin-right="0"
     fit-margin-bottom="0"
     inkscape:window-width="1920"
     inkscape:window-height="1011"
     inkscape:window-x="0"
     inkscape:window-y="24"
     inkscape:window-maximized="1" />
  <metadata
     id="metadata3547">
    <rdf:RDF>
      <cc:Work
         rdf:about="">
        <dc:format>image/svg+xml</dc:format>
        <dc:type
           rdf:resource="http://purl.org/dc/dcmitype/StillImage" />
        <dc:title></dc:title>
      </cc:Work>
    </rdf:RDF>
  </metadata>
  <g
     inkscape:label="Calque 1"
     inkscape:groupmode="layer"
     id="layer1"
     transform="translate(-364.93946,-519.39613)">
    <path
       inkscape:connector-curvature="0"
       d="m 377.31436,549.6461 c -0.31106,0 -0.5625,0.252 -0.5625,0.5625 0,0.3105 0.25144,0.5625 0.5625,0.5625 1.24087,0 2.25,1.00913 2.25,2.25 0,0.3105 0.25144,0.5625 0.5625,0.5625 0.31106,0 0.5625,-0.252 0.5625,-0.5625 0,-1.86131 -1.51369,-3.375 -3.375,-3.375 m -3.375,14.562 c -4.93594,-2.44969 -7.875,-6.61444 -7.875,-11.187 0,-2.48119 2.01881,-4.5 4.5,-4.5 0.90787,0 1.78706,0.28013 2.53237,0.79088 -0.87356,0.99168 -1.40737,2.28768 -1.40737,3.70912 0,0.3105 0.25144,0.5625 0.5625,0.5625 0.31106,0 0.5625,-0.252 0.5625,-0.5625 0,-1.33931 0.59175,-2.54081 1.52325,-3.36544 0.0866,-0.0771 0.17606,-0.14962 0.26775,-0.21937 0.0202,-0.0146 0.0411,-0.0309 0.0619,-0.0461 0.0894,-0.0653 0.18113,-0.12769 0.27507,-0.18563 0.0259,-0.0163 0.0518,-0.0326 0.0782,-0.0478 0.0906,-0.0546 0.18338,-0.10519 0.27732,-0.153 0.0326,-0.0163 0.0658,-0.0315 0.099,-0.0478 0.09,-0.0428 0.18112,-0.0833 0.27393,-0.11925 0.0411,-0.0169 0.0833,-0.0309 0.12488,-0.0461 0.0872,-0.0315 0.17494,-0.0619 0.26437,-0.0877 0.0529,-0.0152 0.10688,-0.0287 0.16088,-0.0416 0.0799,-0.0203 0.16087,-0.041 0.24244,-0.0574 0.0737,-0.0135 0.14906,-0.0236 0.22443,-0.0338 0.0641,-0.01 0.12825,-0.0202 0.19294,-0.027 0.14288,-0.0135 0.28744,-0.022 0.43369,-0.022 2.48119,0 4.5,2.01881 4.5,4.5 0,4.57256 -2.9385,8.73731 -7.875,11.187 m 3.375,-16.812 c -0.17381,0 -0.3465,0.0107 -0.51863,0.0265 -0.063,0.006 -0.12543,0.0146 -0.18787,0.023 -0.10519,0.0129 -0.20981,0.0287 -0.31331,0.0478 -0.0765,0.014 -0.15188,0.0298 -0.22669,0.0467 -0.0861,0.0197 -0.17156,0.0427 -0.25763,0.0664 -0.081,0.0225 -0.162,0.0444 -0.24187,0.0703 -0.072,0.0236 -0.14231,0.0523 -0.21375,0.0788 -0.18788,0.0703 -0.37125,0.14906 -0.54844,0.23793 -0.0355,0.018 -0.072,0.0332 -0.10687,0.0517 -0.0939,0.0495 -0.1845,0.10463 -0.27507,0.15919 -0.0501,0.0298 -0.10012,0.0591 -0.14906,0.0911 -0.0883,0.0562 -0.17269,0.11643 -0.25706,0.17718 -0.0259,0.0185 -0.0529,0.0354 -0.0787,0.0546 -0.97256,-0.73238 -2.15381,-1.13119 -3.375,-1.13119 -3.10163,0 -5.625,2.52281 -5.625,5.625 0,5.09119 3.27375,9.69637 8.757,12.31931 0.0771,0.0371 0.16031,0.0557 0.243,0.0557 0.0827,0 0.16594,-0.0185 0.243,-0.0557 5.48325,-2.62294 8.757,-7.22812 8.757,-12.31931 0,-3.10219 -2.52338,-5.625 -5.625,-5.625"
       style="fill:#ffffff;fill-opacity:1;fill-rule:nonzero;stroke:none"
       id="path3389" />
    <path
       id="path4381"
       style="fill:#eaa502;fill-opacity:1;fill-rule:nonzero;stroke:none"
       d="m 377.31436,525.6461 c -0.31106,0 -0.5625,0.252 -0.5625,0.5625 0,0.3105 0.25144,0.5625 0.5625,0.5625 1.24087,0 2.25,1.00913 2.25,2.25 0,0.3105 0.25144,0.5625 0.5625,0.5625 0.31106,0 0.5625,-0.252 0.5625,-0.5625 0,-1.86131 -1.51369,-3.375 -3.375,-3.375 m -3.375,14.562 c -4.93594,-2.44969 -7.875,-6.61444 -7.875,-11.187 0,-2.48119 2.01881,-4.5 4.5,-4.5 0.90787,0 1.78706,0.28013 2.53237,0.79088 -0.87356,0.99168 -1.40737,2.28768 -1.40737,3.70912 0,0.3105 0.25144,0.5625 0.5625,0.5625 0.31106,0 0.5625,-0.252 0.5625,-0.5625 0,-1.33931 0.59175,-2.54081 1.52325,-3.36544 0.0866,-0.0771 0.17606,-0.14962 0.26775,-0.21937 0.0202,-0.0146 0.0411,-0.0309 0.0619,-0.0461 0.0894,-0.0653 0.18113,-0.12769 0.27507,-0.18563 0.0259,-0.0163 0.0518,-0.0326 0.0782,-0.0478 0.0906,-0.0546 0.18338,-0.10519 0.27732,-0.153 0.0326,-0.0163 0.0658,-0.0315 0.099,-0.0478 0.09,-0.0428 0.18112,-0.0833 0.27393,-0.11925 0.0411,-0.0169 0.0833,-0.0309 0.12488,-0.0461 0.0872,-0.0315 0.17494,-0.0619 0.26437,-0.0877 0.0529,-0.0152 0.10688,-0.0287 0.16088,-0.0416 0.0799,-0.0203 0.16087,-0.041 0.24244,-0.0574 0.0737,-0.0135 0.14906,-0.0236 0.22443,-0.0338 0.0641,-0.01 0.12825,-0.0202 0.19294,-0.027 0.14288,-0.0135 0.28744,-0.022 0.43369,-0.022 2.48119,0 4.5,2.01881 4.5,4.5 0,4.57256 -2.9385,8.73731 -7.875,11.187 m 3.375,-16.812 c -0.17381,0 -0.3465,0.0107 -0.51863,0.0265 -0.063,0.006 -0.12543,0.0146 -0.18787,0.023 -0.10519,0.0129 -0.20981,0.0287 -0.31331,0.0478 -0.0765,0.014 -0.15188,0.0298 -0.22669,0.0467 -0.0861,0.0197 -0.17156,0.0427 -0.25763,0.0664 -0.081,0.0225 -0.162,0.0444 -0.24187,0.0703 -0.072,0.0236 -0.14231,0.0523 -0.21375,0.0788 -0.18788,0.0703 -0.37125,0.14906 -0.54844,0.23793 -0.0355,0.018 -0.072,0.0332 -0.10687,0.0517 -0.0939,0.0495 -0.1845,0.10463 -0.27507,0.15919 -0.0501,0.0298 -0.10012,0.0591 -0.14906,0.0911 -0.0883,0.0562 -0.17269,0.11643 -0.25706,0.17718 -0.0259,0.0185 -0.0529,0.0354 -0.0787,0.0546 -0.97256,-0.73238 -2.15381,-1.13119 -3.375,-1.13119 -3.10163,0 -5.625,2.52281 -5.625,5.625 0,5.09119 3.27375,9.69637 8.757,12.31931 0.0771,0.0371 0.16031,0.0557 0.243,0.0557 0.0827,0 0.16594,-0.0185 0.243,-0.0557 5.48325,-2.62294 8.757,-7.22812 8.757,-12.31931 0,-3.10219 -2.52338,-5.625 -5.625,-5.625"
       inkscape:connector-curvature="0" />
  </g>
</svg>
